<svg width="1748" height="497" viewBox="0 0 1748 497" fill="none" xmlns="http://www.w3.org/2000/svg">
<rect y="1.52588e-05" width="497" height="497" rx="105" fill="white"/>
<rect x="283.281" y="62.8971" width="157.137" height="345.259" rx="63" transform="rotate(35 283.281 62.8971)" fill="black"/>
<path d="M195.142 211.923L302.106 286.82L244.548 369.022C225.858 395.714 189.069 402.201 162.377 383.511L152.073 376.296C125.381 357.607 118.894 320.817 137.584 294.125L195.142 211.923Z" fill="white"/>
<line x1="195.429" y1="211.514" x2="302.393" y2="286.411" stroke="black"/>
<path d="M252.701 129.721C271.391 103.029 308.18 96.5425 334.872 115.232L345.176 122.447C371.868 141.137 378.354 177.926 359.665 204.618L302.106 286.82L195.142 211.923L252.701 129.721Z" fill="black"/>
<path d="M345.176 122.447C371.867 141.137 378.354 177.926 359.665 204.618L313.531 270.504L303.559 263.522L355.606 189.191C371.03 167.163 365.677 136.802 343.649 121.378L345.176 122.447Z" fill="white"/>
<path d="M164.402 374.122C137.711 355.433 131.224 318.643 149.913 291.951L196.047 226.066L206.019 233.048L153.972 307.379C138.548 329.406 143.901 359.767 165.929 375.191L164.402 374.122Z" fill="black"/>
<path d="M665.965 357L617.84 200.184H616.609C616.792 203.921 617.065 209.572 617.43 217.137C617.885 224.611 618.296 232.586 618.66 241.062C619.025 249.539 619.207 257.195 619.207 264.031V357H581.336V157.117H639.031L686.336 309.969H687.156L737.332 157.117H795.027V357H755.516V262.391C755.516 256.102 755.607 248.855 755.789 240.652C756.062 232.449 756.382 224.656 756.746 217.273C757.111 209.799 757.384 204.194 757.566 200.457H756.336L704.793 357H665.965ZM919.223 201.277C933.35 201.277 945.518 204.012 955.727 209.48C965.935 214.858 973.819 222.697 979.379 232.996C984.939 243.296 987.719 255.874 987.719 270.73V290.965H889.145C889.6 302.723 893.109 311.974 899.672 318.719C906.326 325.372 915.531 328.699 927.289 328.699C937.042 328.699 945.974 327.697 954.086 325.691C962.198 323.686 970.538 320.678 979.105 316.668V348.934C971.54 352.671 963.611 355.405 955.316 357.137C947.113 358.868 937.133 359.734 925.375 359.734C910.062 359.734 896.482 356.909 884.633 351.258C872.875 345.607 863.624 336.993 856.879 325.418C850.225 313.842 846.898 299.259 846.898 281.668C846.898 263.803 849.906 248.947 855.922 237.098C862.029 225.158 870.505 216.225 881.352 210.301C892.198 204.285 904.822 201.277 919.223 201.277ZM919.496 230.945C911.384 230.945 904.639 233.543 899.262 238.738C893.975 243.934 890.922 252.091 890.102 263.211H948.617C948.526 257.013 947.387 251.499 945.199 246.668C943.103 241.837 939.913 238.009 935.629 235.184C931.436 232.358 926.059 230.945 919.496 230.945ZM1084.02 359.734C1066.98 359.734 1053.08 353.081 1042.32 339.773C1031.66 326.375 1026.33 306.733 1026.33 280.848C1026.33 254.689 1031.75 234.91 1042.6 221.512C1053.44 208.022 1067.62 201.277 1085.12 201.277C1092.41 201.277 1098.83 202.28 1104.39 204.285C1109.95 206.29 1114.74 208.979 1118.75 212.352C1122.85 215.724 1126.32 219.507 1129.14 223.699H1130.51C1129.96 220.783 1129.28 216.499 1128.46 210.848C1127.73 205.105 1127.36 199.227 1127.36 193.211V144.266H1169.2V357H1137.21L1129.14 337.176H1127.36C1124.72 341.368 1121.39 345.197 1117.38 348.66C1113.46 352.033 1108.77 354.721 1103.3 356.727C1097.83 358.732 1091.41 359.734 1084.02 359.734ZM1098.65 326.512C1110.05 326.512 1118.07 323.139 1122.71 316.395C1127.45 309.559 1129.96 299.305 1130.23 285.633V281.121C1130.23 266.264 1127.96 254.917 1123.4 247.078C1118.84 239.148 1110.36 235.184 1097.97 235.184C1088.76 235.184 1081.56 239.148 1076.37 247.078C1071.17 255.008 1068.57 266.447 1068.57 281.395C1068.57 296.342 1071.17 307.599 1076.37 315.164C1081.65 322.729 1089.08 326.512 1098.65 326.512ZM1407.42 357H1353.55L1266.6 205.789H1265.37C1265.73 212.078 1266.05 218.413 1266.32 224.793C1266.6 231.173 1266.87 237.553 1267.14 243.934C1267.42 250.223 1267.69 256.557 1267.96 262.938V357H1230.09V157.117H1283.55L1370.37 306.824H1371.32C1371.14 300.626 1370.91 294.474 1370.64 288.367C1370.37 282.26 1370.09 276.154 1369.82 270.047C1369.64 263.94 1369.46 257.833 1369.27 251.727V157.117H1407.42V357ZM1531.61 201.277C1545.74 201.277 1557.91 204.012 1568.12 209.48C1578.33 214.858 1586.21 222.697 1591.77 232.996C1597.33 243.296 1600.11 255.874 1600.11 270.73V290.965H1501.54C1501.99 302.723 1505.5 311.974 1512.06 318.719C1518.72 325.372 1527.92 328.699 1539.68 328.699C1549.43 328.699 1558.36 327.697 1566.48 325.691C1574.59 323.686 1582.93 320.678 1591.5 316.668V348.934C1583.93 352.671 1576 355.405 1567.71 357.137C1559.5 358.868 1549.52 359.734 1537.77 359.734C1522.45 359.734 1508.87 356.909 1497.02 351.258C1485.27 345.607 1476.01 336.993 1469.27 325.418C1462.62 313.842 1459.29 299.259 1459.29 281.668C1459.29 263.803 1462.3 248.947 1468.31 237.098C1474.42 225.158 1482.9 216.225 1493.74 210.301C1504.59 204.285 1517.21 201.277 1531.61 201.277ZM1531.89 230.945C1523.77 230.945 1517.03 233.543 1511.65 238.738C1506.37 243.934 1503.31 252.091 1502.49 263.211H1561.01C1560.92 257.013 1559.78 251.499 1557.59 246.668C1555.49 241.837 1552.3 238.009 1548.02 235.184C1543.83 232.358 1538.45 230.945 1531.89 230.945ZM1712.41 326.512C1716.97 326.512 1721.39 326.056 1725.67 325.145C1730.05 324.233 1734.38 323.094 1738.66 321.727V352.762C1734.19 354.767 1728.63 356.408 1721.98 357.684C1715.42 359.051 1708.22 359.734 1700.38 359.734C1691.26 359.734 1683.06 358.276 1675.77 355.359C1668.57 352.352 1662.87 347.202 1658.68 339.91C1654.58 332.527 1652.53 322.273 1652.53 309.148V235.457H1632.57V217.82L1655.54 203.875L1667.57 171.609H1694.23V204.148H1737.02V235.457H1694.23V309.148C1694.23 314.982 1695.87 319.357 1699.15 322.273C1702.52 325.099 1706.94 326.512 1712.41 326.512Z" fill="white"/>
</svg>
